<svg id="Layer_1" data-name="Layer 1" xmlns="http://www.w3.org/2000/svg" viewBox="0 0 576 58"><defs><style>.cls-1{fill:#212121;}.cls-1,.cls-2{fill-rule:evenodd;}.cls-2{fill:#146356;fill-opacity:0.25;}</style></defs><path class="cls-1" d="M0,0,23.85,2.18c24.3,2.18,72,6.54,120.15,13.91,48.15,7.55,95.85,18.27,144,20.45s95.85-4.35,144-6.37c48.15-2.18,95.85,0,120.15,1l23.85,1V58H0Z"/><path class="cls-2" d="M0,23.2l19.2,4.64c19.2,4.64,57.6,13.92,96,11.6S192,23.2,230.4,13.92A488.87,488.87,0,0,1,345.6,0C384,0,422.4,4.64,460.8,12.76s76.8,19.72,96,25.52l19.2,5.8V58H0Z"/></svg>